HIERARCHY
ROOT Hips
{
     OFFSET 1.88212 96.90440 -13.34250
     CHANNELS 6 Xposition Yposition Zposition Zrotation Xrotation Yrotation
     JOINT Spine
     {
          OFFSET 0.00000 11.89050 0.00000
          CHANNELS 3 Zrotation Xrotation Yrotation
          JOINT Spine1
          {
               OFFSET -0.00000 25.65740 0.12766
               CHANNELS 3 Zrotation Xrotation Yrotation
               JOINT HEad
               {
                    OFFSET 0.00000 8.73416 0.01134
                    CHANNELS 3 Zrotation Xrotation Yrotation
                    End Site
                    {
                         OFFSET -0.29000 12.77420 2.51395
                    }
               }
               JOINT LeftShoulder1
               {
                    OFFSET 8.99000 -0.36225 -0.22000
                    CHANNELS 3 Zrotation Xrotation Yrotation
                    JOINT LeftArm
                    {
                         OFFSET 10.28270 -0.00338 0.32212
                         CHANNELS 3 Zrotation Xrotation Yrotation
                         JOINT LeftForeArm
                         {
                              OFFSET 32.76690 0.09914 -1.42434
                              CHANNELS 3 Zrotation Xrotation Yrotation
                              JOINT LeftHand
                              {
                                   OFFSET 27.56430 0.08536 1.02216
                                   CHANNELS 3 Zrotation Xrotation Yrotation
                                   End Site
                                   {
                                        OFFSET 16.74430 -0.60000 1.50291
                                   }
                              }
                         }
                    }
               }
               JOINT RightShoulder
               {
                    OFFSET -8.99000 -0.36225 -0.22000
                    CHANNELS 3 Zrotation Xrotation Yrotation
                    JOINT RightArm
                    {
                         OFFSET -10.28270 -0.00338 0.32212
                         CHANNELS 3 Zrotation Xrotation Yrotation
                         JOINT RightForeArm
                         {
                              OFFSET -32.89710 0.09914 -1.42434
                              CHANNELS 3 Zrotation Xrotation Yrotation
                              JOINT RightHand
                              {
                                   OFFSET -27.49210 0.08536 1.02216
                                   CHANNELS 3 Zrotation Xrotation Yrotation
                                   End Site
                                   {
                                        OFFSET -16.63120 -0.60000 1.50291
                                   }
                              }
                         }
                    }
               }
          }
     }
     JOINT LeftUpLeg
     {
          OFFSET 8.94580 -8.66707 0.10165
          CHANNELS 3 Zrotation Xrotation Yrotation
          JOINT LeftLeg
          {
               OFFSET 0.00000 -44.42270 1.37270
               CHANNELS 3 Zrotation Xrotation Yrotation
               JOINT LeftFoot
               {
                    OFFSET -0.25355 -42.09240 -1.46059
                    CHANNELS 3 Zrotation Xrotation Yrotation
                    JOINT LeftToes
                    {
                         OFFSET -0.04000 -4.41509 8.49910
                         CHANNELS 3 Zrotation Xrotation Yrotation
                         End Site
                         {
                              OFFSET 0.08000 -0.04745 9.77979
                         }
                    }
               }
          }
     }
     JOINT RightUpLeg
     {
          OFFSET -8.94580 -8.66707 0.10165
          CHANNELS 3 Zrotation Xrotation Yrotation
          JOINT RightLeg
          {
               OFFSET 0.00000 -44.42270 1.37270
               CHANNELS 3 Zrotation Xrotation Yrotation
               JOINT RightFoot
               {
                    OFFSET 0.25355 -42.09240 -1.46059
                    CHANNELS 3 Zrotation Xrotation Yrotation
                    JOINT RightToes
                    {
                         OFFSET 0.04000 -4.41509 8.49910
                         CHANNELS 3 Zrotation Xrotation Yrotation
                         End Site
                         {
                              OFFSET -0.08000 -0.13745 9.77979
                         }
                    }
               }
          }
     }
}
MOTION
Frames: 8
Frame Time: 0.01667
132.37366 93.76929 -208.31622 2.79989 3.18839 131.33900 0.86042 15.46012 4.88686 -0.00467 0.00482 0.00067 -32.22805 14.47176 34.18242 3.12469 7.63931 6.42993 -152.52312 -75.34377 -127.22662 -42.05865 46.69239 -94.07608 3.98208 11.16855 0.31056 13.52470 10.36658 11.21575 51.68830 -9.72502 79.42954 22.05795 35.28593 98.99025 -7.37480 9.39391 0.38763 17.48454 -17.45803 10.58188 7.87839 18.27896 -22.61198 65.14186 0.02658 -0.03177 -75.74265 1.28621 7.05394 -23.16533 -5.11484 7.38642 4.97249 22.79352 1.69216 11.54160 0.00283 0.00101 -7.08168 -30.90197 -4.74445 
133.60339 93.86387 -207.20731 3.28491 3.17129 131.87938 1.70560 15.48739 4.82566 -0.00498 0.00440 0.00007 -31.81266 14.93749 33.56310 2.74167 7.44281 6.07116 -150.95413 -75.61414 -125.40120 -42.21965 46.92045 -94.33306 3.90807 11.22103 0.38816 13.28841 10.08462 10.73761 51.90108 -9.00576 78.91841 21.91319 35.21967 98.87072 -7.13831 9.46167 0.16223 18.71645 -16.65271 10.17063 6.43680 17.81116 -19.50533 59.65675 0.06040 -0.13541 -76.37328 5.14055 21.93177 -21.98256 -4.40498 5.16621 4.96931 22.96510 3.31750 10.53531 0.00156 -0.00018 -7.60479 -30.99473 -4.87027 
134.76274 93.97803 -206.23203 3.70344 3.21876 132.39684 2.45512 15.45513 4.79482 -0.00508 0.00410 -0.00041 -31.51089 15.47114 33.05623 2.46485 7.22945 5.68501 -149.26012 -76.04136 -123.50300 -42.31300 47.04893 -94.58439 3.86540 11.31583 0.42714 13.10269 9.77629 10.25895 51.99599 -8.31433 78.28659 21.74972 35.10083 98.74776 -6.85795 9.62522 0.01274 19.84790 -15.89573 9.74656 4.71139 17.56235 -14.45226 54.01722 0.13028 -0.21534 -67.57922 4.72643 11.15176 -20.92656 -3.75168 3.07842 4.78838 23.24770 4.85451 9.73790 0.00097 -0.00100 -7.88155 -31.04651 -4.87557 
135.85448 94.12344 -205.39058 4.05307 3.31452 132.88539 3.11519 15.35612 4.79325 -0.00522 0.00389 -0.00087 -31.31251 16.06965 32.66226 2.26597 7.00985 5.27650 -147.45084 -76.57269 -121.59072 -42.32989 47.05336 -94.79279 3.87016 11.40464 0.44948 12.92623 9.45243 9.78828 51.99765 -7.71049 77.61880 21.59513 34.93280 98.61751 -6.52372 9.83792 -0.08333 20.89693 -15.22258 9.33190 2.78876 17.51278 -7.82768 48.17225 0.20829 -0.27338 -62.49785 6.58505 9.27483 -19.99479 -3.13569 1.14641 4.47309 23.58185 6.28371 9.11406 0.00090 -0.00140 -7.96853 -30.99752 -4.84497 
136.88141 94.30246 -204.67244 4.33380 3.44051 133.34343 3.69107 15.18490 4.81718 -0.00547 0.00369 -0.00136 -31.20448 16.72414 32.37975 2.11146 6.78857 4.85146 -145.53368 -77.16488 -119.70123 -42.26497 46.92936 -94.93692 3.90864 11.47230 0.44774 12.72296 9.11973 9.33141 51.93787 -7.22886 76.98264 21.47211 34.72762 98.47851 -6.18155 10.06298 -0.13040 21.82502 -14.60609 8.92541 1.21234 17.16407 -2.21867 41.57174 0.25771 -0.22288 -54.82909 7.41325 3.27041 -19.17441 -2.54745 -0.61647 4.06512 23.91622 7.58991 8.63018 0.00110 -0.00149 -7.90752 -30.88520 -4.77989 
137.84480 94.50875 -204.06140 4.54740 3.57841 133.77225 4.18658 14.93773 4.86152 -0.00581 0.00350 -0.00182 -31.17153 17.42253 32.20414 1.97714 6.56820 4.41892 -143.53000 -77.77858 -117.86140 -42.11952 46.68966 -95.00760 3.98276 11.49784 0.42020 12.47145 8.78328 8.89064 51.85131 -6.87795 76.42837 21.39619 34.50071 98.32685 -5.85662 10.26328 -0.14479 22.59531 -14.01121 8.51994 -0.06486 16.65643 2.47719 34.37646 0.26515 -0.16550 -47.42759 8.81282 0.58438 -18.44649 -1.98658 -2.20580 3.59830 24.21021 8.76279 8.25877 0.00143 -0.00140 -7.76043 -30.70428 -4.71115 
138.74496 94.73158 -203.54108 4.69720 3.71265 134.17320 4.60363 14.61484 4.92223 -0.00618 0.00337 -0.00219 -31.19726 18.15090 32.12739 1.85221 6.35503 3.98950 -141.50531 -78.37466 -116.12153 -41.90219 46.35988 -95.00481 4.07679 11.47990 0.35868 12.16543 8.45123 8.46372 51.77444 -6.64585 75.99404 21.37561 34.26678 98.15568 -5.59126 10.41694 -0.12862 23.18559 -13.41023 8.10876 -1.07395 16.05467 6.33888 26.69726 0.25241 -0.11025 -39.02172 9.70852 -2.64191 -17.79125 -1.45764 -3.62175 3.09921 24.43304 9.79593 7.97844 0.00175 -0.00121 -7.56441 -30.46582 -4.63266 
139.58276 94.92140 -203.10083 4.84777 3.84272 134.55484 5.02025 14.25139 4.99239 -0.00388 0.00040 -0.00169 -31.24342 18.90672 32.09158 1.84367 6.18643 3.62679 -139.25591 -78.93627 -114.14355 -41.78667 45.92336 -94.89838 4.15768 11.44913 0.30537 11.69568 8.13961 7.95563 51.83960 -6.39848 75.74517 21.46633 33.98519 97.91850 -5.33099 10.55686 -0.13210 23.72294 -12.71220 7.68989 -1.92296 15.28420 9.94862 18.65108 0.26062 -0.07312 -30.31080 10.59504 -5.50738 -17.15411 -0.90756 -4.98099 2.59832 24.54511 10.79366 7.71822 0.00266 -0.00110 -7.33785 -30.17168 -4.55133 
